# xmcd
#
# Track frame offsets:
#	150
#	18422
#	31882
#	45121
#	65773
#	79960
#	110117
#	125825
#	145345
#	171817
#	189747
#	208902
#	222719
#	236147
#	251895
#	270548
#	288850
#
# Disc length: 4083 seconds
#
# Revision: 0
# Processed by: cddbd v1.5.2PL0 Copyright (c) Steve Scherf et al.
# Submitted via: EasyCDDAExtractor 2010.4.0.0
#
DISCID=110ff111
DTITLE=Tony Luke - Smokin' Gun
DYEAR=2010
DGENRE=Blues
TTITLE0=Call Me A Liar
TTITLE1=Smokin Gun
TTITLE2=Big Joe And His Little Boogie Band
TTITLE3=Poole Hall Queen
TTITLE4=Silent Assassin
TTITLE5=Might As Well Be Blind
TTITLE6=The Might As Well Be Blind Shuffle
TTITLE7=Notice Me
TTITLE8=Sleepy Hollow
TTITLE9=This Conversation
TTITLE10=Hot Lovin' Gypsy Woman
TTITLE11=War
TTITLE12=That's The Way I Am
TTITLE13=Sweet Sugar
TTITLE14=Life Ain't Good Enough For You
TTITLE15=Baby Got Plans
TTITLE16=Please Pretty Baby
EXTD=
EXTT0=
EXTT1=
EXTT2=
EXTT3=
EXTT4=
EXTT5=
EXTT6=
EXTT7=
EXTT8=
EXTT9=
EXTT10=
EXTT11=
EXTT12=
EXTT13=
EXTT14=
EXTT15=
EXTT16=
PLAYORDER=
